HIERARCHY
ROOT Hips
{
  OFFSET 0.849866 78.6569 -0.536788
  CHANNELS 6 Xposition Yposition Zposition Zrotation Xrotation Yrotation
  JOINT Bip01_Pelvis
  {
    OFFSET 0 0 0
    CHANNELS 6 Xposition Yposition Zposition Zrotation Xrotation Yrotation
    JOINT BN_Tail_01
    {
      OFFSET -5.52397 -0.332285 0
      CHANNELS 6 Xposition Yposition Zposition Zrotation Xrotation Yrotation
      JOINT BN_Tail_02
      {
        OFFSET 6.48885 -2.032e-005 0
        CHANNELS 6 Xposition Yposition Zposition Zrotation Xrotation Yrotation
        JOINT BN_Tail_03
        {
          OFFSET 7.08759 1.016e-005 -0.00261112
          CHANNELS 6 Xposition Yposition Zposition Zrotation Xrotation Yrotation
          End Site
          {
            OFFSET 0 0 0
          }
        }
      }
    }
    JOINT Bip01_Spine
    {
      OFFSET 4.02227 0.398968 0
      CHANNELS 6 Xposition Yposition Zposition Zrotation Xrotation Yrotation
      JOINT BN_UpperArm_R_01
      {
        OFFSET 4.84413 -3.22857 -3.65581
        CHANNELS 6 Xposition Yposition Zposition Zrotation Xrotation Yrotation
        JOINT BN_Forearm_R_01
        {
          OFFSET 8.51614 0 0
          CHANNELS 6 Xposition Yposition Zposition Zrotation Xrotation Yrotation
          JOINT BN_hand_R_01
          {
            OFFSET 10.1924 0 0
            CHANNELS 6 Xposition Yposition Zposition Zrotation Xrotation Yrotation
            JOINT BN_Finger_R_02
            {
              OFFSET 14.5949 -1.43855 0.585079
              CHANNELS 6 Xposition Yposition Zposition Zrotation Xrotation Yrotation
              End Site
              {
                OFFSET 0 0 0
              }
            }
            JOINT BN_Finger_R_01
            {
              OFFSET 14.4623 0 0
              CHANNELS 6 Xposition Yposition Zposition Zrotation Xrotation Yrotation
              End Site
              {
                OFFSET 0 0 0
              }
            }
          }
        }
      }
      JOINT BN_UpperArm_L_01
      {
        OFFSET 4.84412 -3.22858 3.65557
        CHANNELS 6 Xposition Yposition Zposition Zrotation Xrotation Yrotation
        JOINT BN_Forearm_L_01
        {
          OFFSET 8.51611 0 0
          CHANNELS 6 Xposition Yposition Zposition Zrotation Xrotation Yrotation
          JOINT BN_hand_L_01
          {
            OFFSET 10.1924 0 0
            CHANNELS 6 Xposition Yposition Zposition Zrotation Xrotation Yrotation
            JOINT BN_Finger_L_01
            {
              OFFSET 14.4623 0 0
              CHANNELS 6 Xposition Yposition Zposition Zrotation Xrotation Yrotation
              End Site
              {
                OFFSET 0 0 0
              }
            }
            JOINT BN_Finger_L_02
            {
              OFFSET 14.5949 1.43855 0.585071
              CHANNELS 6 Xposition Yposition Zposition Zrotation Xrotation Yrotation
              End Site
              {
                OFFSET 0 0 0
              }
            }
          }
        }
      }
      JOINT Bip01_R_Thigh
      {
        OFFSET -4.03411 -0.254132 -3.45377
        CHANNELS 6 Xposition Yposition Zposition Zrotation Xrotation Yrotation
        JOINT Bip01_R_Calf
        {
          OFFSET 3.92618 0 0
          CHANNELS 6 Xposition Yposition Zposition Zrotation Xrotation Yrotation
          JOINT Bip01_R_HorseLink
          {
            OFFSET 6.12319 0 0
            CHANNELS 6 Xposition Yposition Zposition Zrotation Xrotation Yrotation
            JOINT Bip01_R_Foot
            {
              OFFSET 9.94776 0 0
              CHANNELS 6 Xposition Yposition Zposition Zrotation Xrotation Yrotation
              JOINT Bip01_R_Toe3
              {
                OFFSET 0.881252 -0.110953 0.0158496
                CHANNELS 6 Xposition Yposition Zposition Zrotation Xrotation Yrotation
                JOINT Bip01_R_Toe31
                {
                  OFFSET 2.32137 0 0
                  CHANNELS 6 Xposition Yposition Zposition Zrotation Xrotation Yrotation
                  JOINT Bip01_R_Toe32
                  {
                    OFFSET 1.63293 0 0
                    CHANNELS 6 Xposition Yposition Zposition Zrotation Xrotation Yrotation
                    JOINT Bip01_R_Toe3Nub
                    {
                      OFFSET 1.72131 0 0
                      CHANNELS 6 Xposition Yposition Zposition Zrotation Xrotation Yrotation
                      End Site
                      {
                        OFFSET 0 0 0
                      }
                    }
                  }
                }
              }
              JOINT Bip01_R_Toe2
              {
                OFFSET 0.994751 0.967285 -1.09428
                CHANNELS 6 Xposition Yposition Zposition Zrotation Xrotation Yrotation
                JOINT Bip01_R_Toe21
                {
                  OFFSET 2.20201 0 0
                  CHANNELS 6 Xposition Yposition Zposition Zrotation Xrotation Yrotation
                  JOINT Bip01_R_Toe22
                  {
                    OFFSET 1.84925 0 0
                    CHANNELS 6 Xposition Yposition Zposition Zrotation Xrotation Yrotation
                    JOINT Bip01_R_Toe2Nub
                    {
                      OFFSET 1.70976 0 0
                      CHANNELS 6 Xposition Yposition Zposition Zrotation Xrotation Yrotation
                      End Site
                      {
                        OFFSET 0 0 0
                      }
                    }
                  }
                }
              }
              JOINT Bip01_R_Toe1
              {
                OFFSET 1.3748 1.34027 -0.0712419
                CHANNELS 6 Xposition Yposition Zposition Zrotation Xrotation Yrotation
                JOINT Bip01_R_Toe11
                {
                  OFFSET 2.26122 0 0
                  CHANNELS 6 Xposition Yposition Zposition Zrotation Xrotation Yrotation
                  JOINT Bip01_R_Toe12
                  {
                    OFFSET 2.22215 0 0
                    CHANNELS 6 Xposition Yposition Zposition Zrotation Xrotation Yrotation
                    JOINT Bip01_R_Toe1Nub
                    {
                      OFFSET 1.61867 0 0
                      CHANNELS 6 Xposition Yposition Zposition Zrotation Xrotation Yrotation
                      End Site
                      {
                        OFFSET 0 0 0
                      }
                    }
                  }
                }
              }
              JOINT Bip01_R_Toe0
              {
                OFFSET 1.40695 0.687986 0.883783
                CHANNELS 6 Xposition Yposition Zposition Zrotation Xrotation Yrotation
                JOINT Bip01_R_Toe01
                {
                  OFFSET 2.26828 0 0
                  CHANNELS 6 Xposition Yposition Zposition Zrotation Xrotation Yrotation
                  JOINT Bip01_R_Toe02
                  {
                    OFFSET 2.09769 0 0
                    CHANNELS 6 Xposition Yposition Zposition Zrotation Xrotation Yrotation
                    JOINT Bip01_R_Toe0Nub
                    {
                      OFFSET 1.53753 0 0
                      CHANNELS 6 Xposition Yposition Zposition Zrotation Xrotation Yrotation
                      End Site
                      {
                        OFFSET 0 0 0
                      }
                    }
                  }
                }
              }
            }
          }
        }
      }
      JOINT Bip01_L_Thigh
      {
        OFFSET -4.03411 -0.254147 3.45377
        CHANNELS 6 Xposition Yposition Zposition Zrotation Xrotation Yrotation
        JOINT Bip01_L_Calf
        {
          OFFSET 3.92616 0 0
          CHANNELS 6 Xposition Yposition Zposition Zrotation Xrotation Yrotation
          JOINT Bip01_L_HorseLink
          {
            OFFSET 6.1232 0 0
            CHANNELS 6 Xposition Yposition Zposition Zrotation Xrotation Yrotation
            JOINT Bip01_L_Foot
            {
              OFFSET 9.94775 0 0
              CHANNELS 6 Xposition Yposition Zposition Zrotation Xrotation Yrotation
              JOINT Bip01_L_Toe3
              {
                OFFSET 0.881246 -0.110986 -0.0157582
                CHANNELS 6 Xposition Yposition Zposition Zrotation Xrotation Yrotation
                JOINT Bip01_L_Toe31
                {
                  OFFSET 2.32136 0 0
                  CHANNELS 6 Xposition Yposition Zposition Zrotation Xrotation Yrotation
                  JOINT Bip01_L_Toe32
                  {
                    OFFSET 1.63293 0 0
                    CHANNELS 6 Xposition Yposition Zposition Zrotation Xrotation Yrotation
                    JOINT Bip01_L_Toe3Nub
                    {
                      OFFSET 1.7213 0 0
                      CHANNELS 6 Xposition Yposition Zposition Zrotation Xrotation Yrotation
                      End Site
                      {
                        OFFSET 0 0 0
                      }
                    }
                  }
                }
              }
              JOINT Bip01_L_Toe2
              {
                OFFSET 0.994649 0.967162 1.09447
                CHANNELS 6 Xposition Yposition Zposition Zrotation Xrotation Yrotation
                JOINT Bip01_L_Toe21
                {
                  OFFSET 2.202 0 0
                  CHANNELS 6 Xposition Yposition Zposition Zrotation Xrotation Yrotation
                  JOINT Bip01_L_Toe22
                  {
                    OFFSET 1.84926 0 0
                    CHANNELS 6 Xposition Yposition Zposition Zrotation Xrotation Yrotation
                    JOINT Bip01_L_Toe2Nub
                    {
                      OFFSET 1.70976 0 0
                      CHANNELS 6 Xposition Yposition Zposition Zrotation Xrotation Yrotation
                      End Site
                      {
                        OFFSET 0 0 0
                      }
                    }
                  }
                }
              }
              JOINT Bip01_L_Toe1
              {
                OFFSET 1.37483 1.34021 0.0715086
                CHANNELS 6 Xposition Yposition Zposition Zrotation Xrotation Yrotation
                JOINT Bip01_L_Toe11
                {
                  OFFSET 2.26124 0 0
                  CHANNELS 6 Xposition Yposition Zposition Zrotation Xrotation Yrotation
                  JOINT Bip01_L_Toe12
                  {
                    OFFSET 2.22214 0 0
                    CHANNELS 6 Xposition Yposition Zposition Zrotation Xrotation Yrotation
                    JOINT Bip01_L_Toe1Nub
                    {
                      OFFSET 1.61867 0 0
                      CHANNELS 6 Xposition Yposition Zposition Zrotation Xrotation Yrotation
                      End Site
                      {
                        OFFSET 0 0 0
                      }
                    }
                  }
                }
              }
              JOINT Bip01_L_Toe0
              {
                OFFSET 1.40707 0.688009 -0.883564
                CHANNELS 6 Xposition Yposition Zposition Zrotation Xrotation Yrotation
                JOINT Bip01_L_Toe01
                {
                  OFFSET 2.26828 0 0
                  CHANNELS 6 Xposition Yposition Zposition Zrotation Xrotation Yrotation
                  JOINT Bip01_L_Toe02
                  {
                    OFFSET 2.0977 0 0
                    CHANNELS 6 Xposition Yposition Zposition Zrotation Xrotation Yrotation
                    JOINT Bip01_L_Toe0Nub
                    {
                      OFFSET 1.53752 0 0
                      CHANNELS 6 Xposition Yposition Zposition Zrotation Xrotation Yrotation
                      End Site
                      {
                        OFFSET 0 0 0
                      }
                    }
                  }
                }
              }
            }
          }
        }
      }
      JOINT Bip01_Spine1
      {
        OFFSET 4.90674 -0.00437896 0
        CHANNELS 6 Xposition Yposition Zposition Zrotation Xrotation Yrotation
        JOINT Bip01_Neck
        {
          OFFSET 5.56447 -1.28357 0
          CHANNELS 6 Xposition Yposition Zposition Zrotation Xrotation Yrotation
          JOINT Bip01_Neck1
          {
            OFFSET 2.79308 -0.00219964 0
            CHANNELS 6 Xposition Yposition Zposition Zrotation Xrotation Yrotation
            JOINT Bip01_Head
            {
              OFFSET 2.79272 0 0
              CHANNELS 6 Xposition Yposition Zposition Zrotation Xrotation Yrotation
              JOINT BN_Mouth_01
              {
                OFFSET 4.19089 0.0665938 0
                CHANNELS 6 Xposition Yposition Zposition Zrotation Xrotation Yrotation
                End Site
                {
                  OFFSET 0 0 0
                }
              }
              JOINT Bip01_HeadNub
              {
                OFFSET 6.95118 0 0
                CHANNELS 6 Xposition Yposition Zposition Zrotation Xrotation Yrotation
                End Site
                {
                  OFFSET 0 0 0
                }
              }
            }
          }
        }
      }
    }
  }
}
MOTION
Frames:	3
Frame Time:	0.0333333
0.849866 91.44 0 -175.247 -90 -90 0 4.54747e-013 0 -89.9987 6.18131 -89.9989 -5.52397 -0.332268 4.33681e-019 -35.3922 0.00990295 179.968 6.48885 -7.6294e-006 -0.00301498 13.1432 -1.94974e-009 6.73952e-010 7.08758 7.10543e-015 -0.00296926 21.0985 0.020392 0.013989 4.02121 0.398918 2.32831e-010 -4.85098 0.598182 3.40367 4.84412 -3.2285 -3.65581 -81.6726 -8.74456 35.7459 8.5161 1.90735e-006 0 36.3246 -0.00153484 -20.2371 10.1924 0 -5.72204e-006 -30.909 0.675284 -22.3419 14.5949 -1.43856 0.585079 -48.2962 -1.49342 21.2378 14.4623 3.81471e-006 -1.90735e-006 -2.99638 -0.00273973 19.865 4.84412 -3.22853 3.65557 98.3175 -8.72061 -144.236 8.51611 -1.90735e-006 7.62939e-006 -36.3245 0.00154394 -20.2371 10.1924 7.10544e-015 -3.8147e-006 30.909 -0.675285 -22.3419 14.4623 7.10544e-015 3.55271e-015 2.99636 0.00273723 19.865 14.5949 1.43854 0.585069 48.2962 1.49342 21.2378 -3.76155 -0.77211 -3.67591 -91.1822 -2.57669 173.566 3.92618 -3.8147e-006 0 -75.4756 2.27023e-006 9.02588e-006 6.1232 7.62942e-006 0 99.2199 -2.80672e-006 -9.63952e-006 9.94774 3.81472e-006 0 -51.9021 4.7101 6.04958 0.881242 -0.110956 0.0158117 153.243 -4.55437 179.841 2.32137 3.81473e-006 -8.88179e-016 81.3801 1.11766e-005 -3.41488e-006 1.63293 1.42111e-014 0 -87.5397 -1.15495e-005 9.94867e-006 1.72128 -3.81479e-006 0 3.34571e-007 1.09778e-005 5.18596e-007 0.99469 0.967279 -1.09432 100.731 3.63896 27.2618 2.202 7.6295e-006 8.34465e-007 55.5994 8.92683e-007 8.27206e-007 1.84925 3.81477e-006 2.38419e-007 -35.3034 -1.4404e-005 -1.05457e-005 1.70975 -7.62957e-006 5.96046e-007 -9.25081e-007 1.04225e-005 -1.53452e-006 1.37481 1.34027 -0.0713051 112.106 -1.01429 -2.49568 2.26122 0 4.44089e-016 31.1828 -1.3451e-005 1.02965e-005 2.22212 -3.81476e-006 -2.38419e-007 -38.5073 -6.91029e-006 8.88506e-006 1.61867 2.28886e-005 2.38419e-007 7.31656e-008 2.39861e-008 6.08806e-007 1.40697 0.687979 0.883719 102.531 -7.69386 -31.052 2.26828 0 1.77636e-015 26.1292 1.33965e-005 -8.1868e-006 2.09769 3.81476e-006 0 -61.0221 -5.17207e-006 7.07602e-006 1.53753 -7.62957e-006 0 -1.29389e-006 3.68643e-006 -9.74824e-007 -4.17168 -0.701455 3.21918 -97.4544 7.91293 -174.151 3.92615 7.10544e-015 9.53674e-007 -76.5763 -1.32968e-005 -1.4366e-005 6.1232 -7.62942e-006 -1.77636e-015 132.919 -5.69549e-006 -7.2987e-006 9.94776 -7.62943e-006 0 -17.9055 -7.51281 3.63756 0.881239 -0.110993 -0.0158164 109.14 3.23719 -176.683 2.32137 -1.43053e-006 -1.77636e-015 44.4424 1.33193e-005 1.18439e-007 1.63293 7.6295e-006 7.15256e-007 -43.5259 -9.40256e-007 -7.02862e-007 1.72131 4.76846e-007 4.76837e-007 179.96 -0.000265443 0.000481775 0.99471 0.96726 1.09433 72.5544 10.6313 -25.4917 2.20199 -3.81473e-006 7.62939e-006 63.0462 -1.30573e-006 2.60586e-006 1.84925 3.55277e-015 7.62939e-006 -35.3034 3.13525e-006 -1.00711e-006 1.70977 3.81477e-006 7.10542e-015 -179.96 -9.86026e-006 0.000372346 1.3748 1.34024 0.0713108 77.648 -0.578103 2.629 2.26121 3.81474e-006 -2.38419e-007 49.2911 1.39107e-006 -3.3319e-006 2.22214 -1.90738e-006 -2.38419e-007 -38.5073 7.26273e-006 7.3082e-006 1.61868 7.10555e-015 -7.15256e-007 -179.96 -2.59859e-005 0.000371918 1.40698 0.687962 -0.883718 83.9474 -3.75321 31.6978 2.2683 0 7.10542e-015 49.9345 1.06794e-005 -6.57064e-006 2.0977 -3.55277e-015 3.81469e-006 -61.0221 1.20357e-006 9.20843e-006 1.53752 -3.81478e-006 0 -179.96 -9.58566e-005 0.000371013 4.9071 -0.00430298 2.38419e-007 9.04795 4.95588 -2.0849 5.56426 -1.28359 0.000254631 -1.92277 -6.57525 8.33693 2.79365 -0.0019989 2.38419e-007 24.6191 -3.8675 -9.68557 2.79272 2.28882e-005 0 28.0902 -1.35029 0.453163 4.19086 0.0665665 4.44089e-016 -126.987 -0.0398712 -179.98 6.95116 -2.28882e-005 0 -4.41087e-006 1.00115e-005 4.36852e-008 
-1.43749 93.4855 -0.300185 -32.0492 -89.3463 55.1709 0 4.54747e-013 -4.44089e-016 -89.9987 6.18131 -89.9989 -5.52397 -0.332268 2.22045e-016 -35.7764 0.00181579 179.874 6.48885 -7.6294e-006 -0.00301498 13.5228 -0.00315407 -0.118964 7.08758 2.38032e-012 -0.00296926 21.4675 0.00444073 -0.110828 4.02121 0.398918 2.32831e-010 -2.18527 0.694796 3.77476 4.84412 -3.2285 -3.65581 -81.3194 -8.34125 38.2672 8.5161 1.90735e-006 4.9738e-014 36.3235 -7.43031e-006 -20.2796 10.1924 0 -5.72204e-006 -30.9044 0.673537 -22.8578 14.5949 -1.43856 0.585079 -48.2532 -1.58704 15.9394 14.4623 3.81471e-006 -1.90735e-006 -2.99724 -0.00207759 14.5681 4.84412 -3.22853 3.65557 98.6724 -8.32537 -141.717 8.51611 -1.90735e-006 7.62939e-006 -36.3235 2.26826e-005 -20.2797 10.1924 -2.27374e-013 -3.8147e-006 30.9044 -0.673536 -22.8578 14.4623 -3.55272e-015 -1.42109e-014 2.99723 0.0020751 14.5681 14.5949 1.43854 0.585069 48.2532 1.58704 15.9394 -3.76784 -0.592324 -3.70288 -86.7942 -3.13071 173.527 3.92618 -3.8147e-006 8.88179e-015 -68.15 -6.0054e-006 1.2191e-005 6.1232 7.62942e-006 3.55271e-015 102.299 -2.03288e-005 -5.87179e-006 9.94774 3.81472e-006 0 -55.5648 4.36576 6.40555 0.881241 -0.110956 0.0158117 153.242 -4.55843 179.839 2.32137 3.81473e-006 0 81.3801 1.11743e-005 -3.46786e-006 1.63293 0 -1.77636e-015 -87.5397 -1.161e-005 9.959e-006 1.72128 -3.81479e-006 2.66454e-015 3.34571e-007 1.09778e-005 5.18596e-007 0.99469 0.967279 -1.09432 100.731 3.63897 27.2618 2.202 7.6295e-006 8.34465e-007 55.5994 5.24026e-007 5.40915e-007 1.84925 3.81477e-006 2.38419e-007 -35.3033 -1.4438e-005 -1.05747e-005 1.70975 -7.62957e-006 5.96046e-007 -9.25081e-007 1.04225e-005 -1.53452e-006 1.37481 1.34027 -0.0713051 112.106 -1.01429 -2.49567 2.26122 2.84221e-014 -4.44089e-016 31.1828 -1.37487e-005 9.68296e-006 2.22212 -3.81476e-006 -2.38419e-007 -38.5073 -0.000462065 0.000580837 1.61867 2.28886e-005 2.38419e-007 7.31656e-008 2.39861e-008 6.08806e-007 1.40697 0.687979 0.883719 102.531 -7.69386 -31.052 2.26828 0 3.55271e-015 26.1292 1.79294e-005 8.04002e-007 2.09769 3.81476e-006 7.10542e-015 -61.0224 0.000202479 -0.000107953 1.53753 -7.62957e-006 -1.77636e-015 -1.29389e-006 3.68643e-006 -9.74824e-007 -4.22217 -0.509972 3.18918 -97.6153 8.63572 -174.185 3.92615 7.10544e-015 9.53674e-007 -75.7528 -3.84041e-006 -1.65964e-005 6.1232 -7.62942e-006 0 134.056 -5.38059e-006 -7.68543e-006 9.94776 -7.62943e-006 1.77636e-015 -17.1176 -7.56816 3.51353 0.881239 -0.110993 -0.0158164 109.14 3.23719 -176.683 2.32137 -1.43053e-006 4.44089e-015 44.4425 1.34752e-005 4.72042e-008 1.63293 7.6295e-006 7.15256e-007 -43.4882 -0.000893247 0.000939743 1.72131 4.76846e-007 4.76837e-007 179.96 -0.000265443 0.000481775 0.99471 0.96726 1.09433 72.5544 10.6313 -25.4916 2.20199 -3.81473e-006 7.62939e-006 63.0462 -7.62312e-007 3.24223e-006 1.84925 -1.42111e-014 7.62939e-006 -35.3034 3.4396e-006 -8.83201e-007 1.70977 3.81477e-006 -7.10542e-015 -179.96 -9.85994e-006 0.000372345 1.3748 1.34024 0.0713108 77.648 -0.578103 2.629 2.26121 3.81474e-006 -2.38419e-007 49.2911 1.36107e-006 -3.27376e-006 2.22214 -1.90738e-006 -2.38419e-007 -38.5073 7.36206e-006 7.29573e-006 1.61868 0 -7.15256e-007 -179.96 -2.5986e-005 0.000371918 1.40698 0.687961 -0.883718 83.9474 -3.75322 31.6978 2.2683 -7.1055e-015 0 49.9345 1.044e-005 -6.78155e-006 2.0977 0 3.81469e-006 -61.0221 5.2468e-007 9.4375e-006 1.53752 -3.81478e-006 -1.42108e-014 -179.96 -9.58571e-005 0.000371013 4.9071 -0.00430298 2.38416e-007 9.97193 4.85257 -1.76898 5.56426 -1.28359 0.00025463 -3.8233 -7.12242 7.23124 2.79365 -0.0019989 2.38416e-007 20.9195 -3.14799 -9.30037 2.79272 2.28882e-005 2.4869e-014 25.682 -0.802007 0.53085 4.19086 0.0665665 8.63931e-011 -128.2 -0.0282898 -179.988 6.95116 -2.28882e-005 -1.33227e-014 -4.41087e-006 1.00115e-005 4.36852e-008 
-3.77221 95.539 -0.604766 -35.6378 -88.6644 54.0106 -1.42109e-014 4.54747e-013 0 -89.9987 6.18131 -89.9989 -5.52397 -0.332268 -4.44089e-016 -36.7938 0.0012817 179.569 6.48885 -7.62939e-006 -0.00301498 14.5277 -0.00235328 -0.433339 7.08758 4.80327e-012 -0.00296926 22.4412 -0.00412892 -0.434164 4.02121 0.398918 2.32831e-010 0.656088 0.818321 4.17553 4.84412 -3.2285 -3.65581 -80.4941 -7.20936 44.9104 8.5161 1.90735e-006 2.84217e-014 36.3221 0.000712725 -20.3798 10.1924 -5.68435e-014 -5.72204e-006 -30.8891 0.666454 -24.0996 14.5949 -1.43856 0.585079 -48.1931 -1.76575 3.14198 14.4623 3.81471e-006 -1.90735e-006 -2.99425 -0.000694725 1.76672 4.84412 -3.22853 3.65557 99.4982 -7.19789 -135.078 8.51611 -1.90735e-006 7.62939e-006 -36.3221 -0.000698279 -20.3798 10.1924 -2.13163e-013 -3.81469e-006 30.8892 -0.666462 -24.0997 14.4623 0 -1.77636e-015 2.99426 0.000694533 1.76672 14.5949 1.43854 0.585069 48.1931 1.76576 3.14198 -3.76471 -0.400369 -3.7325 -82.2395 -3.68175 173.529 3.92618 -3.8147e-006 1.24345e-014 -60.3051 3.88349e-006 8.02832e-006 6.1232 7.62942e-006 5.32907e-015 105.416 -0.00268084 0.00072866 9.94774 3.81472e-006 1.77636e-015 -59.4089 4.09762 6.7783 0.881241 -0.110956 0.0158117 153.242 -4.56238 179.838 2.32137 3.81473e-006 0 81.3801 1.11763e-005 -3.51996e-006 1.63293 4.97388e-014 -8.88179e-016 -87.5397 -1.16694e-005 9.96489e-006 1.72128 -3.81479e-006 8.88178e-016 3.34571e-007 1.09778e-005 5.18596e-007 0.99469 0.967279 -1.09432 100.73 3.63896 27.2618 2.202 7.6295e-006 8.34465e-007 55.5994 1.11584e-006 9.0637e-007 1.84925 3.81477e-006 2.38419e-007 -35.3031 -1.48021e-005 -1.01404e-005 1.70975 -7.62957e-006 5.96046e-007 -9.25081e-007 1.04225e-005 -1.53452e-006 1.37481 1.34027 -0.0713051 112.106 -1.01429 -2.49567 2.26122 0 1.77636e-015 31.1828 -1.36043e-005 9.7983e-006 2.22212 -3.81476e-006 -2.38419e-007 -38.5073 -0.000913926 0.00114865 1.61867 2.28886e-005 2.38419e-007 7.31656e-008 2.39861e-008 6.08806e-007 1.40697 0.687979 0.883719 102.531 -7.69386 -31.052 2.26828 -1.42111e-014 -3.55271e-015 26.1292 1.80412e-005 8.05522e-007 2.09769 3.81476e-006 1.77636e-014 -61.0227 0.000393799 -0.000213939 1.53753 -7.62957e-006 -3.55271e-015 -1.29389e-006 3.68643e-006 -9.74824e-007 -4.26674 -0.303261 3.15611 -97.737 9.42966 -174.264 3.92615 -7.10544e-015 9.53674e-007 -74.6993 -4.18833e-006 -1.64658e-005 6.1232 -7.62942e-006 0 135.314 -6.07802e-006 -7.09514e-006 9.94776 -7.62943e-006 1.77636e-015 -16.1055 -7.61547 3.5167 0.881239 -0.110993 -0.0158164 109.14 3.23719 -176.683 2.32137 -1.43053e-006 3.9968e-015 44.4425 1.36639e-005 -4.17489e-008 1.63293 7.6295e-006 7.15256e-007 -43.4906 -0.000836978 0.000880074 1.72131 4.76846e-007 4.76837e-007 179.96 -0.000265443 0.000481775 0.99471 0.96726 1.09433 72.5544 10.6313 -25.4916 2.20199 -3.81473e-006 7.62939e-006 63.0462 -1.47908e-006 3.34428e-006 1.84925 -2.84221e-014 7.62939e-006 -35.3034 3.80809e-006 -7.12059e-007 1.70977 3.81477e-006 -7.10542e-015 -179.96 -9.8595e-006 0.000372345 1.3748 1.34024 0.0713108 77.648 -0.578102 2.629 2.26121 3.81473e-006 -2.38419e-007 49.2911 1.31866e-006 -3.20433e-006 2.22214 -1.90738e-006 -2.38419e-007 -38.5073 7.49003e-006 7.28495e-006 1.61868 0 -7.15256e-007 -179.96 -2.59861e-005 0.000371918 1.40698 0.687961 -0.883718 83.9474 -3.75322 31.6978 2.2683 -7.1055e-015 -7.10542e-015 49.9345 1.79003e-005 -5.35301e-007 2.0977 -7.10553e-015 3.81469e-006 -61.0221 2.8814e-007 9.32115e-006 1.53752 -3.81478e-006 -2.13163e-014 -179.96 -9.58578e-005 0.000371013 4.9071 -0.00430298 2.38412e-007 10.884 4.75415 -1.40952 5.56426 -1.28359 0.000254628 -6.02169 -7.69304 6.01419 2.79365 -0.0019989 2.38414e-007 16.8661 -2.38149 -8.84718 2.79272 2.28882e-005 4.84057e-014 23.1596 -0.156344 0.735296 4.19086 0.0665665 2.1072e-010 -131.432 -0.0432892 -179.981 6.95116 -2.28882e-005 -3.24185e-014 -4.41087e-006 1.00115e-005 4.36852e-008 
